<svg id="SvgjsSvg1001" width="288" height="288" xmlns="http://www.w3.org/2000/svg" version="1.1" xmlns:xlink="http://www.w3.org/1999/xlink" xmlns:svgjs="http://svgjs.com/svgjs"><defs id="SvgjsDefs1002"></defs><g id="SvgjsG1008"><svg xmlns="http://www.w3.org/2000/svg" enable-background="new 0 0 17 20" viewBox="0 0 17 20" width="288" height="288"><g transform="translate(1 1)" fill="#000000" class="color000 svgShape"><path fill="#a91c8e" d="M11.5,4.8L5.9,10L4.3,8.3c-0.2-0.2-0.5-0.2-0.7,0C3.4,8.5,3.4,8.8,3.6,9l2,2c0.2,0.2,0.5,0.2,0.7,0						l5.9-5.5c0.2-0.2,0.2-0.5,0-0.7S11.7,4.6,11.5,4.8z" class="colora91c8e svgShape"></path><path fill="#a91c8e" d="M0,0v0.5h14.5v5.2c0,5-2.8,9.6-7.2,12l0.2,0.4l0.2-0.4c-4.4-2.3-7.2-7-7.2-12l0-5.7H0v0.5V0h-0.5v5.7
						c0,5.4,3,10.4,7.8,12.9c0.1,0.1,0.3,0.1,0.5,0c4.8-2.5,7.8-7.5,7.8-12.9V0c0-0.1-0.1-0.3-0.1-0.4c-0.1-0.1-0.2-0.1-0.4-0.1H0
						c-0.1,0-0.3,0.1-0.4,0.1C-0.4-0.3-0.5-0.1-0.5,0H0z" class="colora91c8e svgShape"></path></g></svg></g></svg>